<svg width="495" height="51" viewBox="0 0 495 51" fill="none" xmlns="http://www.w3.org/2000/svg">
<g clip-path="url(#clip0_105_21)">
<path d="M490.375 34.3131C473.579 33.7479 458.141 32.3427 445.3 26.8135C435.786 22.7048 428.822 18.7183 419.406 13.4182C373.017 -12.6928 342.256 5.78116 326.56 14.6859C324.62 15.7399 322.844 17.0754 321.29 18.6495C316.294 24.9501 339.515 20.5588 331.367 21.7043C337.282 16.1904 332.665 9.61494 322.255 5.6666C311.373 1.56552 295.373 -0.90888 281.584 0.404687C273.99 1.16839 267.247 2.83327 262.402 5.81171C261.554 6.33228 260.747 6.91695 259.988 7.56062L258.833 6.89615C258.833 6.89615 247.443 -0.794325 234.458 3.07764C221.473 6.94961 229.317 8.98107 220.995 9.86696C212.672 10.7529 187.689 5.12437 188.639 17.2596C188.806 19.3598 190.271 21.0094 192.58 22.3153C184.986 22.7506 153.215 22.5062 147.094 20.849C128.262 15.7551 125.119 21.9029 100.44 24.3086C75.7607 26.7142 42.8807 31.2277 9.6817 26.9663C0.0606826 25.7291 -1.95161 26.2866 1.70088 27.6078C7.17582 31.9762 52.7523 43.5615 98.9666 40.5907C145.181 37.6199 147.869 47.2807 184.204 50.5188C219.582 53.6424 226.477 40.3005 245.848 42.7901C247.941 43.5818 249.9 44.692 251.657 46.0817C264.696 56.0099 303.954 45.7228 303.954 45.7228C321.245 44.9591 330.106 39.7583 330.106 39.7583C330.106 39.7583 342.962 43.3858 368.537 42.6069C394.112 41.8279 392.168 36.902 402.708 35.0921C413.248 33.2821 437.836 39.7582 474.664 39.4986C483.967 39.4298 490.125 38.8342 494.127 37.9712C496.2 36.7034 494.468 34.4505 490.375 34.3131Z" fill="#E699A3"/>
<path opacity="0.5" d="M98.9742 40.6289C145.181 37.6886 147.877 47.3189 184.212 50.557C219.59 53.6806 226.485 40.3387 245.856 42.8284C247.949 43.62 249.908 44.7302 251.665 46.1199C264.703 56.048 303.962 45.761 303.962 45.761C321.252 44.9972 330.114 39.7964 330.114 39.7964C330.114 39.7964 342.97 43.4241 368.545 42.6451C394.12 41.8661 392.176 36.9402 402.716 35.1302C413.256 33.3203 437.843 39.7965 474.672 39.5368C478.256 39.5368 481.37 39.407 484.081 39.239C459.781 35.4815 425.982 29.876 410.811 25.5687C385.752 18.4433 402.678 40.9344 329.469 34.4658C329.469 34.4658 314.555 39.5826 297.576 37.5206C280.596 35.4586 242.538 16.7709 222.331 33.7403C202.125 50.7097 159.305 30.6473 129.462 33.7403C104.791 36.2987 44.4147 35.81 1.23779 27.4627L1.69339 27.6307C7.18352 31.9838 52.7599 43.5768 98.9742 40.6289Z" fill="#EBCF99"/>
</g>
<defs>
<clipPath id="clip0_105_21">
<rect width="495" height="51" fill="white"/>
</clipPath>
</defs>
</svg>
