<svg width="905" height="126" viewBox="0 0 905 126" fill="none" xmlns="http://www.w3.org/2000/svg">
<g clip-path="url(#clip0_105_33)">
<path d="M385.248 0C401.593 3.45608 414.135 6.44644 416.699 8.02741C438.009 21.2451 461.998 22.4339 472.59 36.2153C483.808 32.6428 485.764 34.5915 499.263 35.4249C499.702 34.5792 500.25 33.5865 500.978 32.2813C502.624 29.407 504.767 26.8597 507.303 24.7625C514.363 18.8001 524.154 15.3869 535.246 13.9408C555.335 11.3181 578.637 16.2571 594.489 24.4683C609.643 32.3119 616.372 45.4622 607.76 56.4984C619.585 54.225 638.585 63 642.918 50.4073C645.064 47.3706 647.651 44.6843 650.591 42.4412C673.461 24.6705 709.991 26.4292 736.008 39.9165C750.717 47.5395 759.864 58.496 773.73 66.7073C792.435 77.7986 814.895 80.6297 839.383 81.7388C845.895 82.0391 848.314 87.358 843.873 89.7601C864.563 90.0053 885.29 90.7467 905 93.8167V94.1599C873.657 99.0621 839.889 97.8917 807.836 98.4494C788.914 98.7987 769.987 99.007 751.06 99.1724C729.219 105.092 662.676 115.638 641.064 109.865C618.635 110.031 615.788 105.447 605.978 102.653L577.831 110.006C576.783 111.33 575.605 112.541 574.316 113.622C565 121.588 543.924 126.178 530.425 119.388C521.554 114.933 512.082 112.237 502.236 110.57C488.075 110.16 468.462 108.376 461.523 112.917C442.68 125.301 413.624 127.201 385.248 125.436V0Z" fill="#BA467E"/>
<g opacity="0.47">
<path opacity="0.47" d="M461.523 112.966C468.462 108.425 488.075 110.209 502.236 110.619C512.082 112.286 521.555 114.982 530.426 119.437C543.924 126.227 565 121.619 574.316 113.671C575.605 112.59 576.783 111.379 577.831 110.055L605.978 102.702C615.806 105.496 618.617 110.055 641.065 109.915C662.676 115.687 729.22 105.141 751.06 99.2215C769.987 99.0561 788.915 98.8477 807.836 98.4984C839.889 97.8856 873.657 99.0622 905 94.2089V93.8658C885.29 90.8019 864.564 90.0543 843.873 89.8092C844.221 89.6226 844.547 89.3987 844.848 89.1413C839.01 90.8509 830.049 92.0458 816.49 92.2052C762.844 92.726 732.837 83.4301 717.508 87.0578C702.18 90.6855 699.165 96.8623 661.912 98.431C624.659 99.9997 605.942 92.726 605.942 92.726C605.942 92.726 593.027 103.1 567.847 104.657C567.847 104.657 518.124 110.362 500.045 89.6131C482.268 69.2136 474.474 122.005 385.26 113.94V125.516C413.624 127.201 442.68 125.301 461.523 112.966Z" fill="#FFFFB4"/>
</g>
<g opacity="0.5">
<g style="mix-blend-mode:overlay" opacity="0.5">
<path d="M607.814 56.48C600.592 66.5051 584.764 69.3791 584.764 69.3791C603.168 69.8815 616.354 63.6986 625.086 57.1786C619.248 56.6761 613.11 55.5057 607.814 56.48Z" fill="white"/>
</g>
</g>
<g style="mix-blend-mode:overlay" opacity="0.3">
<path d="M623.028 79.9558C626.669 77.1921 631.002 75.5437 635.269 74.073C639.6 72.6905 644.025 71.6378 648.509 70.9234C666.377 67.982 684.787 69.085 702.643 71.432C717.225 73.0068 732.012 74.2017 746.648 73.0497C749.569 72.8138 752.466 72.3446 755.315 71.6464C758.137 70.8927 760.942 69.8571 763.078 67.7185C761.561 70.4638 758.745 72.2592 756.019 73.6073C753.214 74.91 750.283 75.9122 747.274 76.5977C732.373 79.9435 716.996 79.3797 701.969 77.523C687.297 75.3538 672.594 73.7421 657.789 73.9566C651.888 74.0042 645.996 74.436 640.15 75.2496C634.318 76.1565 628.414 77.2902 623.058 79.9558H623.028Z" fill="white"/>
</g>
</g>
<g clip-path="url(#clip1_105_33)">
<path d="M386 0C373.861 3.45608 364.546 6.44644 362.642 8.02741C346.816 21.2451 329 22.4339 321.134 36.2153C312.803 32.6428 311.35 34.5915 301.325 35.4249C300.999 34.5792 300.592 33.5865 300.051 32.2813C298.829 29.407 297.238 26.8597 295.354 24.7625C290.111 18.8001 282.839 15.3869 274.602 13.9408C259.683 11.3181 242.377 16.2571 230.604 24.4683C219.35 32.3119 214.353 45.4622 220.749 56.4984C211.966 54.225 197.856 63 194.638 50.4073C193.045 47.3706 191.123 44.6843 188.939 42.4412C171.955 24.6705 144.825 26.4292 125.504 39.9165C114.58 47.5395 107.787 58.496 97.4889 66.7073C83.5977 77.7986 66.9175 80.6297 48.7311 81.7388C43.8951 82.0391 42.0983 87.358 45.3968 89.7601C30.0307 90.0053 14.6377 90.7467 6.59378e-05 93.8167V94.1599C23.2773 99.0621 48.3556 97.8917 72.1602 98.4494C86.2123 98.7987 100.269 99.007 114.326 99.1724C130.545 105.092 179.965 115.638 196.015 109.865C212.673 110.031 214.787 105.447 222.072 102.653L242.976 110.006C243.754 111.33 244.629 112.541 245.586 113.622C252.505 121.588 268.157 126.178 278.182 119.388C284.77 114.933 291.805 112.237 299.117 110.57C309.634 110.16 324.2 108.376 329.353 112.917C343.348 125.301 364.926 127.201 386 125.436V0Z" fill="#BA467E"/>
<g opacity="0.47">
<path opacity="0.47" d="M329.353 112.966C324.2 108.425 309.634 110.209 299.117 110.619C291.805 112.286 284.77 114.982 278.182 119.437C268.157 126.227 252.505 121.619 245.586 113.671C244.629 112.59 243.754 111.379 242.976 110.055L222.072 102.702C214.773 105.496 212.686 110.055 196.015 109.915C179.965 115.687 130.545 105.141 114.325 99.2215C100.269 99.0561 86.2122 98.8477 72.16 98.4984C48.3555 97.8856 23.2771 99.0622 -0.000124016 94.2089V93.8658C14.6375 90.8019 30.0305 90.0543 45.3966 89.8092C45.1386 89.6226 44.8959 89.3987 44.6726 89.1413C49.008 90.8509 55.6631 92.0458 65.7329 92.2052C105.574 92.726 127.859 83.4301 139.243 87.0578C150.627 90.6855 152.866 96.8623 180.532 98.431C208.198 99.9997 222.099 92.726 222.099 92.726C222.099 92.726 231.69 103.1 250.391 104.657C250.391 104.657 287.318 110.362 300.744 89.6131C313.947 69.2136 319.735 122.005 385.991 113.94V125.516C364.926 127.201 343.347 125.301 329.353 112.966Z" fill="#FFFFB4"/>
</g>
<g opacity="0.5">
<g style="mix-blend-mode:overlay" opacity="0.5">
<path d="M220.709 56.48C226.072 66.5051 237.827 69.3791 237.827 69.3791C224.159 69.8815 214.366 63.6986 207.881 57.1786C212.217 56.6761 216.776 55.5057 220.709 56.48Z" fill="white"/>
</g>
</g>
<g style="mix-blend-mode:overlay" opacity="0.3">
<path d="M209.41 79.9558C206.706 77.1921 203.488 75.5437 200.319 74.073C197.103 72.6905 193.816 71.6378 190.486 70.9234C177.216 67.982 163.544 69.085 150.283 71.432C139.453 73.0068 128.471 74.2017 117.602 73.0497C115.433 72.8138 113.281 72.3446 111.165 71.6464C109.069 70.8927 106.986 69.8571 105.4 67.7185C106.526 70.4638 108.618 72.2592 110.643 73.6073C112.726 74.91 114.902 75.9122 117.137 76.5977C128.203 79.9435 139.623 79.3797 150.783 77.523C161.68 75.3538 172.599 73.7421 183.594 73.9566C187.976 74.0042 192.352 74.436 196.694 75.2496C201.025 76.1565 205.409 77.2902 209.387 79.9558H209.41Z" fill="white"/>
</g>
</g>
<defs>
<clipPath id="clip0_105_33">
<rect width="519.752" height="126" fill="white" transform="translate(385.248)"/>
</clipPath>
<clipPath id="clip1_105_33">
<rect width="386" height="126" fill="white" transform="matrix(-1 0 0 1 386 0)"/>
</clipPath>
</defs>
</svg>
