<svg width="757" height="110" viewBox="0 0 757 110" fill="none" xmlns="http://www.w3.org/2000/svg">
<g clip-path="url(#clip0_108_40)">
<path d="M406.004 70.6944L419.991 19.9005L440.609 23.3883C444.627 19.0927 452.094 30.8224 468.78 10.9382C468.78 10.9382 481.437 -6.16229 495.925 2.40706C510.414 10.9764 501.649 15.5395 510.912 17.5208C520.174 19.5021 547.998 6.9701 546.94 33.9554C546.76 38.6221 545.127 42.3064 542.554 45.2047C551.006 46.1653 559.56 45.6359 566.375 41.9298C587.347 30.5877 590.845 44.2714 618.323 49.6258C645.8 54.9803 709.247 65.0179 746.219 55.537C756.934 52.808 759.171 54.0251 755.109 56.9616C749.009 66.6827 698.26 92.4399 646.803 85.89C595.345 79.3402 592.349 100.764 551.883 107.903C511.417 115.042 504.417 83.5266 481.437 91.2827C458.456 99.0388 421.989 85.9282 421.989 85.9282V73.0305C411.974 71.737 406.004 70.6944 406.004 70.6944Z" fill="#E16D89"/>
<g opacity="0.8">
<path opacity="0.4" d="M458.957 83.5266C484.441 78.7889 484.441 60.9461 484.441 60.9461C484.441 60.9461 489.435 85.9282 515.913 88.308C542.392 90.6878 536.897 78.194 550.383 79.9788C550.383 79.9788 559.376 95.4582 571.366 88.6137C583.356 81.7691 594.848 72.512 629.819 75.6505C658.851 78.2595 719.914 73.3689 752.673 59.718C740.543 70.7708 693.973 91.9213 646.803 85.9173C595.346 79.3675 592.349 100.791 551.883 107.93C511.417 115.069 504.418 83.5266 481.437 91.2827C461.22 98.0891 430.573 88.7774 423.485 86.4413V64.6086C423.485 64.6086 433.477 88.308 458.957 83.5266Z" fill="#FFB72B"/>
</g>
<path opacity="0.4" d="M524.826 50.2316C519.997 48.4686 514.399 45.2865 507.915 40.123C507.915 40.123 526.713 51.2141 542.823 44.888L542.554 45.2046C551.006 46.1653 559.56 45.6358 566.375 41.9297C566.375 41.9461 544.994 58.3643 524.826 50.2316Z" fill="#FFFFB4"/>
<path opacity="0.4" d="M495.177 24.6545C495.177 24.6545 508.748 21.0903 504.716 10.687C506.154 13.7818 505.453 15.8505 509.36 17.1113C506.555 21.849 502.132 25.4514 495.177 24.6545Z" fill="#FFFFB4"/>
</g>
<g clip-path="url(#clip1_108_40)">
<path d="M515.995 71.6944L495.432 20.9005L465.121 24.3883C459.215 20.0927 448.237 31.8224 423.708 11.9382C423.708 11.9382 405.102 -5.16229 383.802 3.40706C362.502 11.9764 375.387 16.5395 361.771 18.5208C348.154 20.5021 307.251 7.9701 308.806 34.9554C309.071 39.6221 311.472 43.3064 315.254 46.2047C302.829 47.1653 290.253 46.6359 280.234 42.9298C249.404 31.5877 244.262 45.2714 203.867 50.6258C163.473 55.9803 70.2009 66.0179 15.8489 56.537C0.0975765 53.808 -3.19139 55.0251 2.77969 57.9616C11.7471 67.6827 86.3531 93.4399 161.999 86.89C237.646 80.3402 242.051 101.764 301.54 108.903C361.028 116.042 371.318 84.5266 405.102 92.2827C438.885 100.039 492.495 86.9282 492.495 86.9282V74.0305C507.217 72.737 515.995 71.6944 515.995 71.6944Z" fill="#E16D89"/>
<g opacity="0.8">
<path opacity="0.4" d="M440.523 84.677C402.823 79.9655 402.823 62.2213 402.823 62.2213C402.823 62.2213 395.434 87.0654 356.262 89.432C317.089 91.7986 325.219 79.3739 305.268 81.1488C305.268 81.1488 291.963 96.5427 274.225 89.736C256.488 82.9292 239.486 73.7233 187.751 76.8444C144.799 79.439 54.4639 74.5755 6 61C23.9449 71.9917 92.8403 93.0253 162.624 87.0545C238.75 80.5409 243.183 101.846 303.049 108.946C362.914 116.046 373.269 84.677 407.267 92.3903C437.175 99.159 482.514 89.8988 493 87.5756V74.2086C493 74.2086 478.218 89.432 440.523 84.677Z" fill="#FFB72B"/>
</g>
<path opacity="0.4" d="M341.316 51.2316C348.414 49.4686 356.645 46.2865 366.176 41.123C366.176 41.123 338.542 52.2141 314.858 45.888L315.254 46.2046C302.829 47.1653 290.253 46.6358 280.234 42.9297C280.234 42.9461 311.667 59.3643 341.316 51.2316Z" fill="#FFFFB4"/>
<path opacity="0.4" d="M384.902 25.6545C384.902 25.6545 364.951 22.0903 370.879 11.687C368.766 14.7818 369.795 16.8505 364.052 18.1113C368.175 22.849 374.677 26.4514 384.902 25.6545Z" fill="#FFFFB4"/>
</g>
<defs>
<clipPath id="clip0_108_40">
<rect width="351" height="109" fill="white" transform="matrix(-1 0 0 1 757 0)"/>
</clipPath>
<clipPath id="clip1_108_40">
<rect width="516" height="109" fill="white" transform="translate(0 1)"/>
</clipPath>
</defs>
</svg>
