<svg width="23" height="17" viewBox="0 0 23 17" fill="none" xmlns="http://www.w3.org/2000/svg">
<g clip-path="url(#clip0_1950_12651)">
<path d="M10.5092 5.62073C7.57294 6.49313 4.06003 8.461 1.33057 14.0395L4.6634 12.3645L5.96007 15.0146C6.17847 9.2165 10.0244 7.35574 10.9568 6.20165L10.5092 5.62073Z" fill="#EF7517"/>
<path d="M12.5277 5.62073C15.464 6.49313 18.1772 7.77115 20.9067 13.3496L18.2999 12.3888L16.6798 15.6541C16.4617 9.85598 13.0125 7.35574 12.0796 6.20165L12.5277 5.62073Z" fill="#EF7517"/>
<path d="M11.3232 4.69834C13.6691 2.30312 16.4893 0.29215 21.4436 0C23.5904 3.2403 23.3855 6.69211 21.6366 10.2829C17.6464 10.3372 14.251 8.61571 11.3232 5.49619V4.69834Z" fill="#EF7517"/>
<path d="M22.9921 5.38452C22.9259 6.98291 22.4472 8.61807 21.6362 10.2836C17.6459 10.3379 14.2505 8.61638 11.3228 5.49686C11.3233 5.49619 19.7571 12.9193 22.9921 5.38452Z" fill="#CC5605"/>
<path d="M11.3232 4.69834C13.6691 2.30312 16.4893 0.29215 21.4436 0C20.9635 1.47323 16.8955 1.1244 11.3232 4.69834Z" fill="#AF4A05"/>
<path d="M11.6758 4.69834C9.32992 2.30312 6.50973 0.29215 1.55544 0C-0.591351 3.2403 -0.386462 6.69211 1.3624 10.2829C5.35292 10.3372 8.74835 8.61571 11.6758 5.49619V4.69834Z" fill="#EF7517"/>
<path d="M0.00830078 5.38452C0.0747588 6.98291 0.553479 8.61807 1.36421 10.2836C5.35473 10.3379 8.75015 8.61638 11.6776 5.49686C11.6773 5.49619 3.24324 12.9193 0.00830078 5.38452Z" fill="#CC5605"/>
<path d="M11.677 4.69834C9.33113 2.30312 6.51094 0.29215 1.55664 0C2.03674 1.47323 6.10474 1.1244 11.677 4.69834Z" fill="#AF4A05"/>
<path d="M12.1179 3.07191C12.3513 3.10207 12.5879 3.15413 12.7816 3.27818C13.279 3.59732 13.322 4.25117 13.316 4.80919C13.3121 5.19157 13.3073 5.57834 13.2023 5.94807C13.1463 6.15022 13.0582 6.33685 12.9431 6.49723C12.8279 6.65761 12.6881 6.78858 12.5314 6.88263C12.1735 7.09621 11.7261 7.12588 11.2987 7.12588C10.9463 7.12588 10.4285 7.09231 10.1852 6.85831C9.9418 6.62431 9.8563 6.18208 9.77279 5.87024C9.61372 5.28158 9.52504 3.8756 9.95015 3.47862C10.3916 3.06704 11.5957 3.0038 12.1179 3.07191Z" fill="#FF8C3E"/>
</g>
<defs>
<clipPath id="clip0_1950_12651">
<rect width="23" height="17" fill="white"/>
</clipPath>
</defs>
</svg>
