<svg width="23" height="23" viewBox="0 0 23 23" fill="none" xmlns="http://www.w3.org/2000/svg">
<path fill-rule="evenodd" clip-rule="evenodd" d="M11.4032 2.47948C14.3093 2.47948 14.6566 2.49365 15.8048 2.54327C16.868 2.59288 17.4422 2.77008 17.8249 2.91893C18.3352 3.11739 18.6967 3.35129 19.0795 3.73404C19.4622 4.11679 19.6961 4.47828 19.8946 4.98861C20.0434 5.37136 20.2206 5.95257 20.2702 7.00868C20.3199 8.15693 20.334 8.50424 20.334 11.4103C20.334 14.3164 20.3199 14.6637 20.2702 15.8119C20.2206 16.8751 20.0434 17.4492 19.8946 17.832C19.6961 18.3423 19.4622 18.7038 19.0795 19.0866C18.6967 19.4693 18.3352 19.7032 17.8249 19.9017C17.4422 20.0505 16.8609 20.2277 15.8048 20.2773C14.6566 20.3269 14.3093 20.3411 11.4032 20.3411C8.49715 20.3411 8.14985 20.3269 7.0016 20.2773C5.9384 20.2277 5.36428 20.0505 4.98153 19.9017C4.47119 19.7032 4.1097 19.4693 3.72696 19.0866C3.34421 18.7038 3.11031 18.3423 2.91184 17.832C2.763 17.4492 2.5858 16.868 2.53618 15.8119C2.48657 14.6637 2.4724 14.3164 2.4724 11.4103C2.4724 8.50424 2.48657 8.15693 2.53618 7.00868C2.5858 5.94549 2.763 5.37136 2.91184 4.98861C3.11031 4.47828 3.34421 4.11679 3.72696 3.73404C4.1097 3.35129 4.47119 3.11739 4.98153 2.91893C5.36428 2.77008 5.94549 2.59288 7.0016 2.54327C8.14985 2.48656 8.49715 2.47948 11.4032 2.47948ZM11.4032 0.516113C8.44753 0.516113 8.07187 0.530289 6.90945 0.579905C5.74703 0.629521 4.96027 0.813807 4.26565 1.08315C3.54976 1.35958 2.9402 1.73524 2.33772 2.33772C1.73525 2.94019 1.35958 3.54976 1.08315 4.26564C0.813809 4.96026 0.629529 5.75411 0.579913 6.90945C0.530297 8.07187 0.516113 8.44044 0.516113 11.4032C0.516113 14.3589 0.530297 14.7345 0.579913 15.897C0.629529 17.0594 0.813809 17.8462 1.08315 18.5408C1.35958 19.2567 1.73525 19.8662 2.33772 20.4687C2.9402 21.0712 3.54976 21.4468 4.26565 21.7233C4.96027 21.9926 5.75411 22.1769 6.90945 22.2265C8.07187 22.2761 8.44045 22.2903 11.4032 22.2903C14.3589 22.2903 14.7346 22.2761 15.897 22.2265C17.0594 22.1769 17.8462 21.9926 18.5408 21.7233C19.2567 21.4468 19.8662 21.0712 20.4687 20.4687C21.0712 19.8662 21.4468 19.2567 21.7233 18.5408C21.9926 17.8462 22.1769 17.0523 22.2265 15.897C22.2761 14.7345 22.2903 14.366 22.2903 11.4032C22.2903 8.44753 22.2761 8.07187 22.2265 6.90945C22.1769 5.74702 21.9926 4.96026 21.7233 4.26564C21.4468 3.54976 21.0712 2.94019 20.4687 2.33772C19.8662 1.73524 19.2567 1.35958 18.5408 1.08315C17.8462 0.813807 17.0523 0.629521 15.897 0.579905C14.7346 0.523201 14.366 0.516113 11.4032 0.516113ZM11.4245 5.83208C8.33413 5.83208 5.82499 8.34121 5.82499 11.4316C5.82499 14.5219 8.33413 17.031 11.4245 17.031C14.5148 17.031 17.024 14.5219 17.024 11.4316C17.024 8.34121 14.5148 5.83208 11.4245 5.83208ZM11.4245 15.0677C9.41858 15.0677 7.78836 13.4375 7.78836 11.4316C7.78836 9.42567 9.41858 7.79544 11.4245 7.79544C13.4304 7.79544 15.0606 9.42567 15.0606 11.4316C15.0606 13.4375 13.4304 15.0677 11.4245 15.0677ZM18.4982 5.56982C18.4982 6.28571 17.917 6.86692 17.2012 6.86692C16.4853 6.86692 15.9041 6.28571 15.9041 5.56982C15.9041 4.85394 16.4853 4.27273 17.2012 4.27273C17.917 4.27273 18.4982 4.85394 18.4982 5.56982Z" fill="white"/>
</svg>
