<svg width="26" height="27" viewBox="0 0 26 27" fill="none" xmlns="http://www.w3.org/2000/svg">
<path d="M19.0485 5.74192C19.9392 5.74192 20.6614 5.0198 20.6614 4.12902C20.6614 3.23823 19.9392 2.51611 19.0485 2.51611C18.1577 2.51611 17.4355 3.23823 17.4355 4.12902C17.4355 5.0198 18.1577 5.74192 19.0485 5.74192Z" stroke="white" stroke-width="2" stroke-linecap="round" stroke-linejoin="round"/>
<path d="M16.3293 18.6453C15.2996 19.1752 14.1582 19.4517 13.0001 19.4517C11.842 19.4517 10.7006 19.1752 9.6709 18.6453" stroke="white" stroke-width="2" stroke-linecap="round" stroke-linejoin="round"/>
<path d="M13 8.16146L13.8065 3.32275L17.4541 3.88394" stroke="white" stroke-width="2" stroke-linecap="round" stroke-linejoin="round"/>
<path d="M6.08541 9.96364C7.93103 8.84165 10.3507 8.16138 12.9999 8.16138C15.6491 8.16138 18.0688 8.84165 19.9144 9.96364L19.9143 9.96385C20.1257 9.6733 20.3992 9.43349 20.7149 9.26185C21.0306 9.0902 21.3806 8.99102 21.7394 8.97152C22.0982 8.95203 22.4569 9.01269 22.7893 9.14911C23.1217 9.28554 23.4196 9.4943 23.6613 9.76022C23.903 10.0261 24.0824 10.3426 24.1865 10.6865C24.2906 11.0304 24.3168 11.3932 24.2632 11.7485C24.2096 12.1038 24.0775 12.4428 23.8765 12.7407C23.6755 13.0385 23.4108 13.2879 23.1014 13.4707L23.1016 13.4706C23.3529 14.0897 23.4827 14.7513 23.4838 15.4194C23.4838 19.428 18.79 22.6775 12.9999 22.6775C7.20985 22.6775 2.51606 19.428 2.51606 15.4194C2.51716 14.7513 2.64693 14.0897 2.89828 13.4706L2.89848 13.4707C2.58908 13.2879 2.32426 13.0386 2.12328 12.7407C1.9223 12.4428 1.7902 12.1038 1.73657 11.7485C1.68294 11.3932 1.70913 11.0304 1.81324 10.6864C1.91736 10.3425 2.09677 10.026 2.33846 9.76011C2.58015 9.49417 2.87803 9.2854 3.21048 9.14898C3.54294 9.01255 3.9016 8.95189 4.26043 8.9714C4.61925 8.99091 4.96922 9.0901 5.28492 9.26177C5.60062 9.43344 5.87412 9.67327 6.08554 9.96385L6.08541 9.96364Z" stroke="white" stroke-width="2" stroke-linecap="round" stroke-linejoin="round"/>
<path d="M8.96788 15.8227C9.85867 15.8227 10.5808 15.1006 10.5808 14.2098C10.5808 13.319 9.85867 12.5969 8.96788 12.5969C8.0771 12.5969 7.35498 13.319 7.35498 14.2098C7.35498 15.1006 8.0771 15.8227 8.96788 15.8227Z" fill="white"/>
<path d="M17.0323 15.8227C17.9231 15.8227 18.6452 15.1006 18.6452 14.2098C18.6452 13.319 17.9231 12.5969 17.0323 12.5969C16.1416 12.5969 15.4194 13.319 15.4194 14.2098C15.4194 15.1006 16.1416 15.8227 17.0323 15.8227Z" fill="white"/>
</svg>
