<svg width="31" height="21" viewBox="0 0 31 21" fill="none" xmlns="http://www.w3.org/2000/svg">
<path d="M30.0388 3.13953C29.869 2.53365 29.5381 1.98511 29.0814 1.55224C28.6119 1.10605 28.0363 0.786887 27.4092 0.624864C25.062 0.00619764 15.6582 0.00619778 15.6582 0.00619778C11.7379 -0.0384054 7.81859 0.157771 3.92233 0.593618C3.29515 0.767612 2.72069 1.09391 2.25005 1.54349C1.78761 1.98843 1.45266 2.53711 1.27768 3.13828C0.857354 5.40265 0.653131 7.70184 0.667764 10.0049C0.652766 12.3058 0.856488 14.6042 1.27768 16.8714C1.44891 17.4701 1.78261 18.0163 2.2463 18.4575C2.70999 18.8987 3.28741 19.2174 3.92233 19.3861C6.30076 20.0035 15.6582 20.0035 15.6582 20.0035C19.5835 20.0482 23.5079 19.852 27.4092 19.4161C28.0363 19.2541 28.6119 18.9349 29.0814 18.4887C29.5439 18.0475 29.8726 17.4988 30.0376 16.9014C30.4689 14.6379 30.6786 12.3378 30.6637 10.0336C30.6962 7.71967 30.4867 5.40868 30.0388 3.13828V3.13953ZM12.6686 14.2843V5.72668L20.4926 10.0061L12.6686 14.2843Z" fill="white"/>
</svg>
