<svg width="18" height="18" viewBox="0 0 18 18" fill="none" xmlns="http://www.w3.org/2000/svg">
<path d="M13.8 3.8039C14.5069 3.8039 15.08 3.23082 15.08 2.5239C15.08 1.81697 14.5069 1.2439 13.8 1.2439C13.0931 1.2439 12.52 1.81697 12.52 2.5239C12.52 3.23082 13.0931 3.8039 13.8 3.8039Z" stroke="white" stroke-width="1.28" stroke-linecap="round" stroke-linejoin="round"/>
<path d="M9 5.72403L9.64 1.88403L12.5348 2.32939" stroke="white" stroke-width="1.28" stroke-linecap="round" stroke-linejoin="round"/>
<path d="M3.51279 7.15511C4.97748 6.26456 6.89776 5.72461 9.00017 5.72461C11.1026 5.72461 13.0229 6.26456 14.4876 7.15511L14.4874 7.15528C14.6552 6.92467 14.8723 6.73432 15.1228 6.59808C15.3734 6.46184 15.6511 6.38312 15.9358 6.36765C16.2206 6.35217 16.5052 6.40032 16.769 6.5086C17.0329 6.61689 17.2693 6.78258 17.461 6.99366C17.6528 7.20473 17.7952 7.45588 17.8778 7.72886C17.9605 8.00185 17.9813 8.28981 17.9387 8.57183C17.8962 8.85386 17.7913 9.12286 17.6319 9.35931C17.4724 9.59575 17.2622 9.7937 17.0167 9.93877L17.0169 9.9387C17.2163 10.4301 17.3193 10.9552 17.3202 11.4855C17.3202 14.6672 13.5952 17.2465 9.00017 17.2465C4.40515 17.2465 0.680146 14.6672 0.680146 11.4855C0.681024 10.9552 0.784009 10.4301 0.983476 9.9387L0.983641 9.93877C0.738095 9.7937 0.527938 9.59576 0.368439 9.35931C0.208939 9.12286 0.104102 8.85385 0.0615422 8.57181C0.0189825 8.28978 0.0397691 8.0018 0.122392 7.72881C0.205016 7.45581 0.347401 7.20465 0.539204 6.99356C0.731007 6.78248 0.967412 6.61678 1.23125 6.5085C1.49508 6.40021 1.77972 6.35206 2.06448 6.36755C2.34925 6.38304 2.62698 6.46177 2.87752 6.59802C3.12806 6.73428 3.34511 6.92464 3.5129 7.15528L3.51279 7.15511Z" fill="white"/>
<path d="M7.04002 10.5251C7.04002 11.21 6.48485 11.7651 5.80002 11.7651C5.11519 11.7651 4.56002 11.21 4.56002 10.5251C4.56002 9.84028 5.11519 9.28512 5.80002 9.28512C6.48485 9.28512 7.04002 9.84028 7.04002 10.5251Z" fill="#0058A5" stroke="#0058A5" stroke-width="0.08"/>
<path d="M13.4404 10.5251C13.4404 11.21 12.8852 11.7651 12.2004 11.7651C11.5156 11.7651 10.9604 11.21 10.9604 10.5251C10.9604 9.84028 11.5156 9.28512 12.2004 9.28512C12.8852 9.28512 13.4404 9.84028 13.4404 10.5251Z" fill="#0058A5" stroke="#0058A5" stroke-width="0.08"/>
<path d="M11.642 14.0459C10.8248 14.4665 9.91904 14.6859 8.99998 14.6859C8.08091 14.6859 7.17512 14.4665 6.35791 14.0459" fill="#0058A5"/>
<path d="M11.642 14.0459C10.8248 14.4665 9.91904 14.6859 8.99998 14.6859C8.08091 14.6859 7.17512 14.4665 6.35791 14.0459" stroke="#0058A5" stroke-width="1.28" stroke-linecap="round" stroke-linejoin="round"/>
</svg>
