<svg width="16" height="15" viewBox="0 0 16 15" fill="none" xmlns="http://www.w3.org/2000/svg">
<path d="M0.211167 13.3379C0.211167 13.3379 3.50051 12.6799 4.15838 10.706C4.15838 10.706 -1.10457 8.73207 0.211167 1.4944C0.211167 1.4944 2.84264 4.78425 6.78985 5.44222V4.12652C6.78992 3.37064 7.05019 2.63784 7.52691 2.05131C8.00363 1.46478 8.66773 1.06029 9.40754 0.905845C10.1474 0.751403 10.9178 0.856425 11.5893 1.20326C12.2608 1.55008 12.7924 2.11757 13.0948 2.81031L16 2.81034L13.3685 5.44222C13.3685 10.048 10.0792 14.6538 4.15838 14.6538C1.5269 14.6538 0.211167 13.3379 0.211167 13.3379Z" fill="white"/>
</svg>
