<svg width="16" height="28" viewBox="0 0 16 28" fill="none" xmlns="http://www.w3.org/2000/svg">
<path d="M9.54229 26.1616H10.4135V25.2904V14.8712H12.739H13.5209L13.6051 14.0938L14.0267 10.2016L14.1312 9.2366H13.1605H10.4166L10.4205 8.16482V8.16167C10.4205 7.90879 10.4278 7.7482 10.4472 7.6326C10.4535 7.59542 10.4598 7.57064 10.4646 7.55516C10.5182 7.53084 10.6937 7.47315 11.1442 7.47315H13.1395H14.0106V6.60196V2.70972V1.83853H13.1395H9.94275C7.89173 1.83853 6.31626 2.34326 5.27096 3.45481C4.23532 4.55607 3.87956 6.08583 3.87956 7.77526V9.2366H2.35498H1.48379V10.1078V14V14.8712H2.35498H3.87956V25.2904V26.1616H4.75075H9.54229ZM10.4727 7.53357C10.4727 7.53358 10.4725 7.53397 10.4721 7.53469L10.4727 7.53357Z" stroke="white" stroke-width="1.74238"/>
</svg>
