<svg width="26" height="27" viewBox="0 0 26 27" fill="none" xmlns="http://www.w3.org/2000/svg">
<path d="M4.93562 21.0645C4.93562 21.0645 8.96788 20.2581 9.77433 17.8387C9.77433 17.8387 3.32272 15.4194 4.93562 6.5484C4.93562 6.5484 8.16143 10.5807 13.0001 11.3871V9.77449C13.0002 8.84804 13.3193 7.94987 13.9037 7.23098C14.4881 6.51209 15.3021 6.01632 16.209 5.82703C17.116 5.63773 18.0604 5.76646 18.8836 6.19155C19.7067 6.61665 20.3584 7.3122 20.7291 8.16126L24.2905 8.1613L21.0647 11.3871C21.0647 17.0323 17.0324 22.6774 9.77433 22.6774C6.54852 22.6774 4.93562 21.0645 4.93562 21.0645Z" stroke="white" stroke-width="2" stroke-linecap="round" stroke-linejoin="round"/>
</svg>
