<svg width="17" height="17" viewBox="0 0 17 17" fill="none" xmlns="http://www.w3.org/2000/svg">
<path fill-rule="evenodd" clip-rule="evenodd" d="M2.29549 0.881272C1.90496 0.490748 1.2718 0.490748 0.881272 0.881272C0.490748 1.2718 0.490748 1.90496 0.881272 2.29549L7.23299 8.6472L0.881272 14.9989C0.490748 15.3894 0.490748 16.0226 0.881272 16.4131C1.2718 16.8037 1.90496 16.8037 2.29549 16.4131L8.6472 10.0614L14.9989 16.4131C15.3894 16.8037 16.0226 16.8037 16.4131 16.4131C16.8037 16.0226 16.8037 15.3894 16.4131 14.9989L10.0614 8.6472L16.4131 2.29549C16.8037 1.90496 16.8037 1.2718 16.4131 0.881272C16.0226 0.490748 15.3894 0.490748 14.9989 0.881272L8.6472 7.23299L2.29549 0.881272Z" fill="#0058A5"/>
<path d="M0.881272 0.881272L1.05805 1.05805L1.05805 1.05805L0.881272 0.881272ZM2.29549 0.881272L2.11871 1.05805L2.29549 0.881272ZM0.881272 2.29549L1.05805 2.11871L0.881272 2.29549ZM7.23299 8.6472L7.40977 8.82398C7.45665 8.77709 7.48299 8.71351 7.48299 8.6472C7.48299 8.5809 7.45665 8.51731 7.40977 8.47043L7.23299 8.6472ZM0.881272 14.9989L1.05805 15.1757H1.05805L0.881272 14.9989ZM0.881272 16.4131L1.05805 16.2364H1.05805L0.881272 16.4131ZM2.29549 16.4131L2.11871 16.2364H2.11871L2.29549 16.4131ZM8.6472 10.0614L8.82398 9.88464C8.72635 9.78701 8.56806 9.78701 8.47043 9.88464L8.6472 10.0614ZM14.9989 16.4131L15.1757 16.2364L14.9989 16.4131ZM16.4131 16.4131L16.2364 16.2364L16.4131 16.4131ZM16.4131 14.9989L16.2364 15.1757V15.1757L16.4131 14.9989ZM10.0614 8.6472L9.88464 8.47043C9.83776 8.51731 9.81142 8.5809 9.81142 8.6472C9.81142 8.71351 9.83776 8.77709 9.88464 8.82398L10.0614 8.6472ZM16.4131 2.29549L16.2364 2.11871V2.11871L16.4131 2.29549ZM16.4131 0.881272L16.2364 1.05805V1.05805L16.4131 0.881272ZM14.9989 0.881272L14.8221 0.704495V0.704495L14.9989 0.881272ZM8.6472 7.23299L8.47043 7.40977C8.51731 7.45665 8.5809 7.48299 8.6472 7.48299C8.71351 7.48299 8.77709 7.45665 8.82398 7.40977L8.6472 7.23299ZM1.05805 1.05805C1.35094 0.765156 1.82582 0.765156 2.11871 1.05805L2.47226 0.704495C1.98411 0.21634 1.19265 0.21634 0.704495 0.704495L1.05805 1.05805ZM1.05805 2.11871C0.765156 1.82582 0.765156 1.35094 1.05805 1.05805L0.704495 0.704495C0.21634 1.19265 0.21634 1.98411 0.704495 2.47226L1.05805 2.11871ZM7.40977 8.47043L1.05805 2.11871L0.704495 2.47226L7.05621 8.82398L7.40977 8.47043ZM1.05805 15.1757L7.40977 8.82398L7.05621 8.47043L0.704495 14.8221L1.05805 15.1757ZM1.05805 16.2364C0.765156 15.9435 0.765156 15.4686 1.05805 15.1757L0.704496 14.8221C0.21634 15.3103 0.21634 16.1018 0.704496 16.5899L1.05805 16.2364ZM2.11871 16.2364C1.82582 16.5292 1.35094 16.5292 1.05805 16.2364L0.704495 16.5899C1.19265 17.0781 1.98411 17.0781 2.47226 16.5899L2.11871 16.2364ZM8.47043 9.88464L2.11871 16.2364L2.47226 16.5899L8.82398 10.2382L8.47043 9.88464ZM15.1757 16.2364L8.82398 9.88464L8.47043 10.2382L14.8221 16.5899L15.1757 16.2364ZM16.2364 16.2364C15.9435 16.5292 15.4686 16.5292 15.1757 16.2364L14.8221 16.5899C15.3103 17.0781 16.1018 17.0781 16.5899 16.5899L16.2364 16.2364ZM16.2364 15.1757C16.5293 15.4686 16.5293 15.9435 16.2364 16.2364L16.5899 16.5899C17.0781 16.1018 17.0781 15.3103 16.5899 14.8221L16.2364 15.1757ZM9.88464 8.82398L16.2364 15.1757L16.5899 14.8221L10.2382 8.47043L9.88464 8.82398ZM16.2364 2.11871L9.88464 8.47043L10.2382 8.82398L16.5899 2.47226L16.2364 2.11871ZM16.2364 1.05805C16.5293 1.35094 16.5293 1.82582 16.2364 2.11871L16.5899 2.47226C17.0781 1.98411 17.0781 1.19265 16.5899 0.704495L16.2364 1.05805ZM15.1757 1.05805C15.4686 0.765156 15.9435 0.765156 16.2364 1.05805L16.5899 0.704495C16.1018 0.21634 15.3103 0.21634 14.8221 0.704495L15.1757 1.05805ZM8.82398 7.40977L15.1757 1.05805L14.8221 0.704495L8.47043 7.05621L8.82398 7.40977ZM2.11871 1.05805L8.47043 7.40977L8.82398 7.05621L2.47226 0.704495L2.11871 1.05805Z" fill="#0058A5"/>
</svg>
